<svg xmlns="http://www.w3.org/2000/svg" width="1000" height="635" viewBox="0 0 1000 635">
	<path
		d="M954.1614 469.38245c-9.66372 27.68008 65.2015 82.16684 35.53587 118.77081-29.66568 36.6036-73.91057 20.92107-123.76282 23.26398-49.85224 2.34329-126.74577-22.60055-172.77778-15.91762-46.03202 6.68332-41.00499 32.41459-98.02996 39.18235-33.11838 3.93034-76.77643-29.66236-127.95253-40.41486-36.94154-7.76175-82.49544 6.93362-108.54469 6.13021-62.13601-1.91571-86.52931 9.66606-133.56582 11.01992-47.03651 1.35386-106.1848 24.20852-148.270277-3.67318-29.740031-19.70263-42.639728-53.77198-52.332117-91.9242-4.023401-15.83697 14.562605-39.72443 10.669402-56.23319-6.446517-27.33506-27.946697-47.49456-33.390162-78.09233-5.763514-32.39641 4.693346-75.30858 3.981182-106.79814-.320163-14.15365 46.474571-24.41881 47.348872-38.0642 2.908121-45.38639-33.624973-91.20341-13.038421-127.23529 14.74964-25.815687 71.334451-11.154886 96.777971-22.10169 20.74564-8.925567-26.24808-54.520919-3.64952-62.384778C183.47519 7.401777 222.11402 3.973502 302.26225.421481c80.14827-3.55202 231.90807 16.496629 310.0197 17.142136 78.11168.645508 152.12496-5.376931 212.44548 6.808049 60.32056 12.184981 99.85691-1.093356 138.46734 52.650891 15.20811 21.169129-11.02272 54.095513-4.95309 80.544193 9.3399 40.69936 20.36582 96.23946 24.10332 128.14944 6.16633 52.64686 23.0624 106.86045 15.92987 131.01533-7.13249 24.1545-34.44975 24.97047-44.11347 52.65093z"
		style="fill:#fff;fill-opacity:1;stroke:none;stroke-width:1.00687px;stroke-linecap:butt;stroke-linejoin:miter;stroke-opacity:1" />
	<path
		d="M635.85417 36.967939c-14.44074-.124392-19.53953 1.68226-22.60023 6.962873-4.73655 8.171949 44.18931 15.150304 44.18931 15.150304s-197.98783-14.696786-327.52626-8.2249c-69.31764 3.463348-114.70252 11.552445-110.47514 25.974085 4.93215 16.825793 119.57388 12.120997 119.57388 12.120997S108.47782 106.64871 91.636874 152.58992c-12.960493 35.35549 32.493746 51.51543 32.493746 51.51554 0 0-72.78288 40.4763-83.613772 79.22134-9.873561 35.32049 9.21972 122.28932 12.706723 137.54237 52.313309 27.54314 191.754689 84.63338 449.234609 84.63338 205.30853 0 335.51389-36.30346 406.41651-64.98514 13.21505-28.06277 34.84328-90.62067 35.56467-132.73221.77222-45.07895-.56404-61.37397-23.39502-70.56407-21.36267-8.5991-49.39944 26.12161-54.59827 40.84035 0 0 54.40413-118.11253 16.27938-162.70175-38.1247-44.589185-133.43723-71.429032-192.79048-75.325128-25.96701-1.704589-42.84911-2.969926-54.0808-3.066663Z"
		style="fill:#e6fbf2;fill-opacity:1;stroke:none;stroke-width:1.00687px;stroke-linecap:butt;stroke-linejoin:miter;stroke-opacity:1" />
	<path
		d="M927.58787 344.14728c-14.47117 0-22.49966 49.69306-19.93629 56.57457 2.5634 6.8815 7.40415 10.02402 19.93629 10.02402 12.53213 0 17.37292-3.14252 19.93629-10.02402 2.56336-6.88151-5.46513-56.57457-19.93629-56.57457z"
		style="fill:#5ae4a8;fill-opacity:1;stroke:none;stroke-width:1.00687;stroke-linecap:round;paint-order:stroke fill markers" />
	<path
		d="m927.58755 363.84752-.28723 9.6206-3.57849-4.02988 3.45849 5.74409.10229-1.11656-.48986 16.36311-3.36209-2.20748-2.65781-4.75543 1.24726 3.82952-5.67366-3.72529 10.38139 9.01329-1.22169 40.92003c1.22223-.54245 2.32202-1.05752 3.49784-1.59047l-.61182-29.36489 1.76072-1.18343 4.14901-.7688-3.06307.038 8.76034-5.88332-6.6455 3.47346.99938-2.55935-2.23681 3.20794-3.75949 1.96593-.24787-11.97359 1.61515-3.82344-1.64859 2.23487-.14755-7.04546 5.35693-7.18472-5.39038 5.5278z"
		style="fill:#1a2f34;fill-opacity:1;stroke:none;stroke-width:1.00687px;stroke-linecap:butt;stroke-linejoin:miter;stroke-opacity:1" />
	<path
		d="M61.669987 329.69494c-15.206815 0-23.643409 52.21898-20.949734 59.45046 2.693676 7.23147 7.780545 10.53376 20.949734 10.53376 13.169228 0 18.256097-3.30229 20.949773-10.53376 2.693675-7.23148-5.742957-59.45046-20.949773-59.45046z"
		style="fill:#5ae4a8;fill-opacity:1;stroke:none;stroke-width:1.00687;stroke-linecap:round;paint-order:stroke fill markers" />
	<path
		d="m61.66915 350.39766-.301129 10.10801-3.759466-4.23428 3.633571 6.035.106213-1.17165-.51348 17.19479-3.533257-2.31967-2.793532-4.99698 1.312176 4.02395-5.962846-3.91584 10.908592 9.47293-1.298395 43.48168c1.236608.62234 2.458407 1.23821 3.773247 1.88299l-.725907-34.89482 1.849259-1.2424 4.361457-.80797-3.218462.0418 9.204949-6.18422-6.983905 3.65225 1.050563-2.68907-2.350937 3.36924-3.948328 2.06635-.26344-12.58117 1.69778-4.01809-1.731243 2.34903-.15342-7.40509 5.626427-7.55056-5.663811 5.81082z"
		style="fill:#1a2f34;fill-opacity:1;stroke:none;stroke-width:1.00687px;stroke-linecap:butt;stroke-linejoin:miter;stroke-opacity:1" />
	<path
		d="M782.97944 254.31462a25.346569 25.327258 0 0 0-23.0643 14.82783 14.527909 14.51684 0 0 0-.11802-.001 14.527909 14.51684 0 0 0-10.9749 5.02118 11.90052 11.891453 0 0 0-4.78917-1.00564 11.90052 11.891453 0 0 0-11.90129 11.89081 11.90052 11.891453 0 0 0 .0392.94112 16.691639 16.678923 0 0 0-.65688-.0152 16.691639 16.678923 0 0 0-16.69187 16.67914 16.691639 16.678923 0 0 0 .004.15407h119.28672a27.5103 27.48934 0 0 0 1.41344-8.64951 27.5103 27.48934 0 0 0-27.51095-27.48863 27.5103 27.48934 0 0 0-3.15253.20618 25.346569 25.327258 0 0 0-21.88529-12.56127z"
		style="fill:none;fill-opacity:1;stroke:#000;stroke-width:1.00687;stroke-linecap:round;stroke-miterlimit:4;stroke-dasharray:none;paint-order:stroke fill markers" />
	<path
		d="M877.62667 571.99409c-6.67224-1.76051-27.17705-10.79662-24.57177-14.73228 2.60531-3.93489 19.00046 7.97213 19.96465 6.75255.96403-1.21995-22.82058-25.06062-18.88958-28.38953 3.93086-3.32892 24.74975 22.32019 26.10746 21.17707 1.35782-1.14387-5.52128-35.1204 3.9929-37.29022 3.11568-.71021 3.19315 34.46991 4.76092 35.1417 1.56758.67066 14.69585-18.03076 18.27522-14.73189 3.57943 3.29924-12.55632 20.03434-11.82512 21.02377.73146.98867 20.66171-3.94745 21.34669.61397.68521 4.56105-21.3875 9.10915-28.09807 10.43524z"
		style="fill:#27fb6b;fill-opacity:1;stroke:none;stroke-width:2.01902px;stroke-linecap:butt;stroke-linejoin:miter;stroke-opacity:1" />
	<path
		d="M331.44148 548.81799c-3.32741-.87797-13.55297-5.38424-12.25373-7.34674 1.29923-1.9625 9.47539 3.9756 9.95617 3.36734.48078-.60827-11.38039-12.49741-9.42008-14.15787 1.96034-1.66009 12.34247 11.13099 13.01962 10.56077.6771-.56985-2.75345-17.51417 1.99121-18.59604 1.55373-.35378 1.59241 17.19006 2.37416 17.52482.78176.33476 7.32874-8.9916 9.11374-7.34674 1.78499 1.64525-6.26177 9.99093-5.8971 10.48431.3647.49338 10.30378-1.96821 10.64542.30432.34148 2.27444-10.66579 4.54279-14.01224 5.20393z"
		style="fill:#27fb6b;fill-opacity:1;stroke:none;stroke-width:1.00687px;stroke-linecap:butt;stroke-linejoin:miter;stroke-opacity:1" />
	<path
		d="M259.06618 562.59279c-2.54703-.67179-10.37437-4.12129-9.37988-5.62351.99452-1.50221 7.25313 3.04323 7.62115 2.57762.36813-.46562-8.71134-9.5664-7.21076-10.83733 1.50058-1.27092 9.44779 8.52029 9.96611 8.08397.51831-.43633-2.10768-13.40658 1.52422-14.23471 1.18932-.27009 1.21894 13.15816 1.81735 13.41456.59838.25487 5.60987-6.88303 6.97626-5.62351 1.36634 1.25913-4.79317 7.64763-4.51408 8.02537.27905.3766 7.88725-1.50677 8.14875.23586.26154 1.7411-8.16432 3.47727-10.72593 3.9832z"
		style="fill:#1a2e36;fill-opacity:1;stroke:none;stroke-width:.770725px;stroke-linecap:butt;stroke-linejoin:miter;stroke-opacity:1" />
	<path
		d="M281.97325 518.91521c-2.19683-.57974-8.94806-3.55488-8.09024-4.85053.85778-1.29566 6.2559 2.62479 6.57333 2.22308.31749-.40171-7.51364-8.25096-6.2194-9.34728 1.29425-1.09595 8.14883 7.34902 8.59588 6.9728.44708-.3766-1.81789-11.56352 1.31469-12.27791 1.02581-.23205 1.05136 11.34934 1.56746 11.57036.51615.22063 4.83862-5.93658 6.01714-4.85053 1.17851 1.08643-4.13419 6.5962-3.89343 6.92221.24059.32714 6.80284-1.29984 7.0284.20161.22537 1.50145-7.04184 2.9991-9.25128 3.43581z"
		style="fill:#1a2e36;fill-opacity:1;stroke:none;stroke-width:.664762px;stroke-linecap:butt;stroke-linejoin:miter;stroke-opacity:1" />
	<path
		d="M407.59015 543.002c-4.01754-1.06019-16.36397-6.5011-14.79529-8.87064 1.56873-2.36954 11.44069 4.79994 12.02117 4.06576.58052-.73456-13.74076-15.08948-11.37387-17.09421 2.36692-2.00435 14.90245 13.43967 15.71999 12.75114.81758-.68854-3.32453-21.14665 2.40423-22.45296 1.87598-.42795 1.9227 20.75521 2.86663 21.15958.94389.40399 8.84873-10.85672 11.00395-8.87025 2.15526 1.98609-7.5605 12.06298-7.12023 12.65869.44031.59534 12.44092-2.37676 12.8534.369.41252 2.74613-12.87795 5.48466-16.91852 6.28313z"
		style="fill:#1a2e36;fill-opacity:1;stroke:none;stroke-width:1.2157px;stroke-linecap:butt;stroke-linejoin:miter;stroke-opacity:1" />
	<path
		d="M471.11082 543.30784c-2.78044-.73342-11.32507-4.49903-10.23945-6.13896 1.08567-1.63992 7.91779 3.32207 8.31953 2.81385.40175-.50822-9.50961-10.44322-7.87153-11.83018 1.63805-1.38733 10.31357 9.30088 10.87936 8.82461.56582-.47665-2.3008-14.63527 1.6639-15.53911 1.29831-.29672 1.33064 14.36404 1.98391 14.64364.65323.2815 6.12399-7.51336 7.61555-6.13858 1.49159 1.3744-5.23241 8.34835-4.9277 8.7607.30455.41198 8.61-1.64486 8.89548.25487.28552 1.9005-8.9125 3.79567-11.70885 4.3484z"
		style="fill:#1a2e36;fill-opacity:1;stroke:none;stroke-width:.841355px;stroke-linecap:butt;stroke-linejoin:miter;stroke-opacity:1" />
	<path
		d="M546.0413 570.24576c-4.60122-1.21425-18.74133-7.44565-16.94472-10.15945 1.79661-2.71342 13.10276 5.4976 13.76757 4.65652.66484-.84145-15.73701-17.28174-13.02624-19.57748 2.71077-2.29573 17.06742 15.3919 18.00377 14.6037.93635-.78895-3.80751-24.21916 2.75352-25.71529 2.14852-.48958 2.20201 23.77067 3.28303 24.23362 1.08105.46295 10.1343-12.43388 12.60264-10.15906 2.46834 2.27519-8.65888 13.81588-8.15465 14.49795.50426.68206 14.2483-2.72179 14.7207.42301.47245 3.14556-14.74884 6.2816-19.3764 7.1961z"
		style="fill:#27fb6b;fill-opacity:1;stroke:none;stroke-width:1.39232px;stroke-linecap:butt;stroke-linejoin:miter;stroke-opacity:1" />
	<path
		d="M648.85167 549.43006c-3.2919-.86846-13.40842-5.32679-12.123-7.26838 1.28533-1.9412 9.37428 3.93338 9.84995 3.33158.47564-.6018-11.25902-12.36426-9.31957-14.00685 1.93941-1.6422 12.21083 11.01231 12.8807 10.44817.66991-.56414-2.72406-17.32739 1.96998-18.39785 1.53716-.34997 1.57542 17.00672 2.34888 17.33805.77341.33095 7.25054-8.89574 9.01646-7.26838 1.766 1.62775-6.19491 9.88441-5.83417 10.37247.3609.48806 10.19388-1.94728 10.53186.30433.33806 2.25046-10.552 4.49447-13.86278 5.14838z"
		style="fill:#27fb6b;fill-opacity:1;stroke:none;stroke-width:.996128px;stroke-linecap:butt;stroke-linejoin:miter;stroke-opacity:1" />
	<path
		d="M203.19532 556.17196c-4.04556-1.06742-16.47822-6.54637-14.89857-8.93227 1.57965-2.38627 11.52056 4.83342 12.10512 4.09391.58455-.7395-13.83674-15.19485-11.45329-17.21327 2.38341-2.01842 15.00645 13.53324 15.82974 12.84015.82325-.69348-3.34774-21.29463 2.42102-22.61006 1.88908-.43062 1.9361 20.90014 2.88658 21.30756.95051.40703 8.91056-10.93243 11.08081-8.93227 2.1703 2.00017-7.61326 12.14706-7.16991 12.74695.44336.5999 12.52776-2.39312 12.94314.3728.41537 2.76554-12.96788 5.52308-17.03666 6.32726z"
		style="fill:#27fb6b;fill-opacity:1;stroke:none;stroke-width:1.22419px;stroke-linecap:butt;stroke-linejoin:miter;stroke-opacity:1" />
	<path
		d="M127.28101 558.61339c-2.88467-.76119-11.74962-4.66794-10.62326-6.3691 1.12632-1.70117 8.21457 3.44646 8.63139 2.91922.41679-.52724-9.86613-10.83467-8.16664-12.27373 1.69949-1.43945 10.7002 9.6497 11.28723 9.15556.58703-.49453-2.38707-15.18382 1.72626-16.1219 1.347-.30812 1.38054 14.9027 2.05825 15.19295.67775.28911 6.35356-7.79524 7.90108-6.3691 1.54748 1.42651-5.42858 8.66141-5.11245 9.08937.31597.42757 8.93279-1.70649 9.22897.26628.29618 1.97163-9.2466 3.93794-12.14779 4.51121z"
		style="fill:#1a2e36;fill-opacity:1;stroke:none;stroke-width:.872895px;stroke-linecap:butt;stroke-linejoin:miter;stroke-opacity:1" />
	<path
		d="M77.546253 519.43142c-4.121353-1.08758-16.786847-6.66924-15.177616-9.10002 1.609231-2.4304 11.736296 4.92432 12.331815 4.17112.59552-.75358-14.095874-15.47977-11.667809-17.53585 2.428103-2.05646 15.287523 13.78659 16.126229 13.08056.838707-.70641-3.410408-21.69328 2.466363-23.03345 1.924484-.43898 1.972375 21.29159 2.94067 21.70661.968295.41464 9.077454-11.13747 11.288372-9.09964 2.210917 2.03782-7.755876 12.37453-7.304221 12.98584.451655.61093 12.762414-2.43801 13.185564.38041.42314 2.81727-13.210766 5.62655-17.35576 6.44556z"
		style="fill:#27fb6b;fill-opacity:1;stroke:none;stroke-width:1.24712px;stroke-linecap:butt;stroke-linejoin:miter;stroke-opacity:1" />
	<path
		d="M706.07247 536.90146c-4.65303-1.22756-18.95254-7.52933-17.13568-10.27395 1.81686-2.74423 13.25039 5.55961 13.92277 4.70902.67231-.85058-15.91441-17.47651-13.17307-19.79811 2.7413-2.32161 17.25982 15.56536 18.20665 14.76841.9469-.7977-3.85042-24.49229 2.78454-26.00516 2.17278-.49529 2.22683 24.03848 3.32011 24.50675 1.0932.4679 10.24851-12.57386 12.74464-10.27356 2.49621 2.30068-8.75641 13.97147-8.24651 14.66114.51013.68967 14.40888-2.7526 14.88661.42834.47785 3.18055-14.91509 6.35236-19.59481 7.27712z"
		style="fill:#1a2e36;fill-opacity:1;stroke:none;stroke-width:1.40801px;stroke-linecap:butt;stroke-linejoin:miter;stroke-opacity:1" />
	<path
		d="M920.4915 519.78253c-3.89347-1.02747-15.85871-6.30025-14.33845-8.59675 1.5203-2.29611 11.08741 4.65196 11.65003 3.94023.56255-.71174-13.31655-14.62349-11.02268-16.56621 2.29379-1.94272 14.4423 13.02465 15.23457 12.35742.79233-.66723-3.22185-20.49388 2.32999-21.75986 1.81808-.41426 1.86331 20.11423 2.77816 20.50605.91473.39143 8.5755-10.52121 10.66418-8.59637 2.08872 1.92523-7.32702 11.69057-6.90034 12.26802.42683.57708 12.05676-2.30334 12.45649.35758.39984 2.66169-12.48032 5.31539-16.39614 6.08913z"
		style="fill:#27fb6b;fill-opacity:1;stroke:none;stroke-width:1.17817px;stroke-linecap:butt;stroke-linejoin:miter;stroke-opacity:1" />
	<path
		d="m893.81171 572.08235-1.99122-5.9693-7.50541-4.13233-5.5142-9.48955-19.75916-7.19344-10.56886 5.816-6.12688 9.9487-8.88395 1.07121-5.9737 9.94871z"
		style="fill:#fff;stroke:none;stroke-width:1.00687px;stroke-linecap:butt;stroke-linejoin:miter;stroke-opacity:1" />
	<path
		d="M796.61962 561.38767c-9.68059-2.55403-39.43055-15.66465-35.65061-21.37451 3.78003-5.70948 27.56734 11.56656 28.96624 9.7973 1.3987-1.7704-33.10986-36.36013-27.40646-41.19012 5.70322-4.82999 35.90884 32.38378 37.87874 30.72521 1.97001-1.6597-8.01072-50.95546 5.7932-54.10331 4.52044-1.03013 4.63286 50.01169 6.90747 50.98591 2.27438.97345 21.32186-26.15999 26.51509-21.37375 5.19335 4.78624-18.21768 29.06741-17.15676 30.50268 1.06122 1.43488 29.97754-5.72698 30.97142.8909.99414 6.61789-31.03066 13.21637-40.76683 15.14045z"
		style="fill:#1a2e36;fill-opacity:1;stroke:none;stroke-width:2.92935px;stroke-linecap:butt;stroke-linejoin:miter;stroke-opacity:1" />
	<path
		d="M772.13914 569.39669c-7.27053-1.91837-29.61394-11.76512-26.77507-16.05304 2.83895-4.28829 20.70419 8.68652 21.75483 7.35777 1.05048-1.32951-24.86685-27.30766-20.58336-30.93519 4.28334-3.62753 26.969 24.32149 28.44845 23.07567 1.47957-1.2462-6.01637-38.26938 4.35095-40.63359 3.39503-.77374 3.47947 37.56069 5.18779 38.29259 1.70814.73113 16.01358-19.64748 19.91391-16.05266 3.9004 3.59481-13.68222 21.83061-12.88542 22.90867.79702 1.07769 22.51434-4.30122 23.26077.66913.74666 4.97036-23.30528 9.92626-30.61753 11.37103z"
		style="fill:#27fb6b;fill-opacity:1;stroke:none;stroke-width:2.20006px;stroke-linecap:butt;stroke-linejoin:miter;stroke-opacity:1" />
	<path
		d="m854.7529 547.28724-4.28882-6.12221-1.22537-20.35617-13.63227-10.25493-12.71323 3.06149-13.01966 6.88721-10.56882 21.42777-23.28213 16.83591-8.96941 13.31565h60.43514"
		style="fill:#fff;stroke:none;stroke-width:1.00687px;stroke-linecap:butt;stroke-linejoin:miter;stroke-opacity:1" />
	<path
		d="M859.04172 545.29773v4.8977l11.48786 8.11173-6.73954 7.19382 1.37853 6.58137h-37.68024l5.9737-9.94909 8.88395-1.07121 6.12688-9.94832z"
		style="fill:#1a2f34;fill-opacity:1;stroke:none;stroke-width:1.00687px;stroke-linecap:butt;stroke-linejoin:miter;stroke-opacity:1" />
	<path
		d="m893.81171 572.08235-1.99122-5.9693-7.50541-4.13233-5.5142-9.48955-19.75916-7.19344-10.56886 5.816-6.12688 9.9487-8.88395 1.07121-5.9737 9.94871z"
		style="fill:none;stroke:#1a2f34;stroke-width:1.00687px;stroke-linecap:butt;stroke-linejoin:miter;stroke-opacity:1" />
	<path
		d="m835.60644 510.55393-7.65861 11.63237 5.66735 7.95881-3.36975 5.51015 2.45072 15.76469-9.80298 13.92773-.15342 6.73428h-55.68683l8.96941-13.31565 23.28214-16.83591 10.56882-21.42777 13.0198-6.88721z"
		style="fill:#1a2f34;fill-opacity:1;stroke:none;stroke-width:1.00687px;stroke-linecap:butt;stroke-linejoin:miter;stroke-opacity:1" />
	<path
		d="m854.7529 547.28724-4.28882-6.12221-1.22537-20.35617-13.63227-10.25493-12.71323 3.06149-13.01966 6.88721-10.56882 21.42777-23.28213 16.83591-8.96941 13.31565h60.43514"
		style="fill:none;stroke:#1a2f34;stroke-width:1.00687px;stroke-linecap:butt;stroke-linejoin:miter;stroke-opacity:1" />
	<path
		d="M528.13506 525.65634c-2.32181-.61245-9.45716-3.75686-8.55057-5.12632.90658-1.36945 6.61185 2.77391 6.94736 2.34976.33539-.42453-7.94116-8.72076-6.57325-9.87909 1.36787-1.15871 8.61247 7.7667 9.08499 7.36918.47248-.39828-1.92132-12.22123 1.38946-12.97633 1.08417-.24726 1.11116 11.99489 1.65666 12.22846.54554.23204 5.11394-6.27438 6.35949-5.12632 1.24559 1.14806-4.36941 6.97166-4.11496 7.31592.25431.34617 7.18994-1.37364 7.42833.21303.23831 1.58704-7.44253 3.1699-9.77766 3.63133z"
		style="fill:#1a2e36;fill-opacity:1;stroke:none;stroke-width:.702584px;stroke-linecap:butt;stroke-linejoin:miter;stroke-opacity:1" />
	<path
		d="M614.3361 501.61901 506.08147 393.44662l-12.40137 12.39204-76.03278-146.75496-124.62927 38.94099"
		style="fill:none;stroke:#000;stroke-width:1.00687px;stroke-linecap:butt;stroke-linejoin:miter;stroke-opacity:1" />
	<path
		d="m330.70872 286.24811-20.07052-52.27288-36.60836 2.38094-48.95559-81.16972-45.48971 61.68898-40.94073-25.10848L29.685157 322.07146"
		style="fill:none;stroke:#000;stroke-width:1.00687px;stroke-linecap:butt;stroke-linejoin:miter;stroke-opacity:1" />
	<path
		d="m225.50748 165.3597-17.76264 41.99186 3.46588 19.48075-13.77534 21.13877m-5.86721 9.00351-10.68391 16.39495m-40.94073-66.01798 23.61132 16.01751 11.69735 17.31617-12.99708 9.95677-5.07815 18.03327m-3.61137 12.82444-5.39059 19.14275m136.03615.13391-10.03905 3.13681m36.46609-69.93808-18.84571 15.80099-12.78047 3.67972"
		style="fill:none;stroke:#000;stroke-width:1.00687px;stroke-linecap:butt;stroke-linejoin:miter;stroke-opacity:1" />
	<path
		d="M569.8277 261.24109a25.346569 25.327258 0 0 0-23.0643 14.82783 14.527909 14.51684 0 0 0-.11801-.001 14.527909 14.51684 0 0 0-10.97491 5.02117 11.90052 11.891453 0 0 0-4.78917-1.00563 11.90052 11.891453 0 0 0-11.90132 11.89081 11.90052 11.891453 0 0 0 .0392.94112 16.691639 16.678923 0 0 0-.65689-.0152 16.691639 16.678923 0 0 0-16.69186 16.67914 16.691639 16.678923 0 0 0 .008.15407H620.9652a27.5103 27.48934 0 0 0 1.41344-8.64951 27.5103 27.48934 0 0 0-27.51095-27.48863 27.5103 27.48934 0 0 0-3.15253.20618 25.346569 25.327258 0 0 0-21.88529-12.56127z"
		style="fill:none;fill-opacity:1;stroke:#000;stroke-width:1.00687;stroke-linecap:round;stroke-miterlimit:4;stroke-dasharray:none;paint-order:stroke fill markers" />
	<path
		d="M140.59022 441.22876c-25.22919-22.59256-13.20954-97.94496 47.98082-97.94496 61.19037 0 73.21002 75.3524 47.98079 97.94496-28.03913-3.03067-47.98079 14.93504-47.98079 14.93504s-19.94165-17.96571-47.98082-14.93504z"
		style="fill:#5ae4a8;fill-opacity:1;stroke:none;stroke-width:1.00687px;stroke-linecap:butt;stroke-linejoin:miter;stroke-opacity:1" />
	<path
		d="m189.00789 404.5392-1.61711 40.36579-10.95976-9.69155-11.94735-19.66764 8.53999 17.17904-22.09463-11.78491 22.93661 14.77108 13.36578 13.14333-.84198 21.02796c1.43738.3728 2.97158.7319 4.43032 1.10089l-.59609-21.83594 13.66482-13.43624 22.93661-14.77108-22.09463 11.78491 8.53805-17.17904-11.94735 19.66764-11.20569 9.9118-.55676-20.42654 13.14151-19.75247-13.2025 17.5408z"
		style="fill:#1a2f34;fill-opacity:1;stroke:none;stroke-width:1.00687px;stroke-linecap:butt;stroke-linejoin:miter;stroke-opacity:1" />
	<path
		d="M608.22608 474.21586c-25.22919-22.59256-13.20954-97.945 47.98082-97.945 61.19037 0 73.21002 75.35244 47.98079 97.945-28.03917-3.03068-47.98079 14.93503-47.98079 14.93503s-19.94165-17.96571-47.98082-14.93503z"
		style="fill:#27fb6b;fill-opacity:1;stroke:none;stroke-width:1.00687px;stroke-linecap:butt;stroke-linejoin:miter;stroke-opacity:1" />
	<path
		d="M499.64298 289.32835c-18.36657 0-34.65806 4.34049-48.87732 13.02332-14.02179 8.4857-25.08125 20.91779-33.17834 37.29703-7.89962 16.18184-11.85096 35.52169-11.85096 58.01812 0 22.49708 3.95134 41.9342 11.85096 58.31324 8.09709 16.182 19.15655 28.61436 33.17834 37.29707 11.35325 6.77538 24.05053 10.79891 38.04738 12.16456 4.51667.038 9.05359.0609 13.64514.0609 2.59363 0 5.13807-.038 7.70783-.038 14.08236-1.33712 26.78539-5.3675 38.05918-12.19004 14.2193-8.6831 25.27876-21.11507 33.17834-37.29707 8.0971-16.37905 12.14604-35.81654 12.14604-58.31324 0-22.49655-4.04894-41.83635-12.14604-58.0182-7.89958-16.37924-18.95904-28.81136-33.17834-37.29703-14.02179-8.68283-30.21567-13.02332-48.58221-13.02332zM281.02197 294.064l-87.98112 127.28296v44.40149h107.53203v26.45747c21.25684 2.99339 43.78802 5.62008 67.83809 7.70774v-34.16521h27.54993v-54.1695h-27.54993v-31.6728h-65.76456v31.6728h-28.14207L352.71001 294.064Zm415.91461 0-87.98311 127.28296v44.40149h107.53402v24.70799c24.48885-3.7078 47.09042-7.91773 67.83808-12.44757v-12.26042h27.5499v-54.1695h-27.5499v-31.6728h-65.76455v31.6728h-28.14207L768.62462 294.064Zm-197.2936 51.20882c15.79918 0 23.69991 17.46514 23.69991 52.394 0 34.92944-7.90073 52.39454-23.69991 52.39454-15.79921 0-23.698-17.4651-23.698-52.39454 0-34.92886 7.89879-52.394 23.698-52.394z"
		style="font-weight:900;font-size:77.8145px;line-height:1.25;font-family:Montserrat;-inkscape-font-specification:&quot;Montserrat Heavy&quot;;fill:#1b2e35;fill-opacity:1;stroke-width:7.40312" />
	<path
		d="m656.64451 437.52743-1.61711 40.36541-10.95979-9.69116-11.94736-19.66764 8.54003 17.17865-22.09463-11.78681 22.93661 14.77298 13.36578 13.14333-.65707 16.37715c1.37125-.13695 2.71465-.2853 4.07624-.42491l-.42691-15.65932 13.66477-13.43625 22.93665-14.77298-22.09463 11.78681 8.53805-17.17865-11.94735 19.66764-11.20569 9.91142-.55676-20.42655 13.14151-19.75208-13.2025 17.5408z"
		style="fill:#1a2f34;fill-opacity:1;stroke:none;stroke-width:1.00687px;stroke-linecap:butt;stroke-linejoin:miter;stroke-opacity:1" />
	<path
		d="M196.43922 516.2908c-3.47996-.91829-14.17445-5.6315-12.81564-7.68377 1.35881-2.05266 9.90988 4.15781 10.41278 3.52177.50278-.63641-11.90232-13.07067-9.85205-14.80683 2.05015-1.73655 12.90845 11.64111 13.61658 11.04502.7082-.59647-2.87968-18.31758 2.08255-19.4489 1.62503-.369 1.66542 17.97788 2.48311 18.32823.81758.34997 7.66478-9.40396 9.53162-7.68339 1.86689 1.72056-6.54888 10.44893-6.1675 10.96513.38149.51583 10.7763-2.05874 11.13358.31954.35747 2.37867-11.15487 4.75087-14.65485 5.44244z"
		style="fill:#27fb6b;fill-opacity:1;stroke:none;stroke-width:1.05304px;stroke-linecap:butt;stroke-linejoin:miter;stroke-opacity:1" />
	<path
		d="m204.88073 516.33645-1.03857-3.11322-3.91452-2.15537-2.87599-4.94906-10.30558-3.75192-5.51229 3.03334-3.19555 5.18871-4.6335.55881-3.11563 5.18871z"
		style="fill:#fff;stroke:none;stroke-width:.525142px;stroke-linecap:butt;stroke-linejoin:miter;stroke-opacity:1" />
	<path
		d="M154.18921 510.75897c-5.04903-1.33217-20.56542-8.17031-18.59396-11.14811 1.97154-2.9778 14.37804 6.03244 15.10764 5.10958.72949-.92324-17.26876-18.96389-14.2941-21.48292 2.97455-2.51942 18.72862 16.88992 19.75603 16.02489 1.02746-.86542-4.17807-26.57615 3.02149-28.21798 2.35768-.53751 2.41631 26.08391 3.60266 26.59213 1.18624.50784 11.12064-13.64394 13.82924-11.14773 2.70863 2.49659-9.50163 15.16023-8.94829 15.90886.55349.74864 15.63506-2.98693 16.15345.46486.51851 3.4514-16.18436 6.89291-21.26236 7.89642z"
		style="fill:#1a2e36;fill-opacity:1;stroke:none;stroke-width:1.52783px;stroke-linecap:butt;stroke-linejoin:miter;stroke-opacity:1" />
	<path
		d="M141.42116 514.9358c-3.79202-1.00046-15.44547-6.13591-13.9648-8.37268 1.48067-2.2364 10.79845 4.53099 11.34643 3.83789.54789-.69348-12.96956-14.2427-10.73546-16.13483 2.23403-1.89175 14.06596 12.68533 14.83758 12.0356.77167-.65011-3.1379-19.96017 2.26928-21.19306 1.77072-.40323 1.81477 19.59042 2.70574 19.97196.8909.38117 8.35205-10.24732 10.38632-8.3723 2.03428 1.87463-7.1361 11.38586-6.72054 11.9481.41568.56185 11.74258-2.24324 12.13188.34997.38945 2.59207-12.1551 5.17692-15.96885 5.93049z"
		style="fill:#27fb6b;fill-opacity:1;stroke:none;stroke-width:1.14746px;stroke-linecap:butt;stroke-linejoin:miter;stroke-opacity:1" />
	<path
		d="m184.50919 503.40462-2.23688-3.19311-.63911-10.61707-7.11003-5.34847-6.63073 1.59655-6.79051 3.59215-5.5123 11.17589-12.14303 8.78124-4.67808 6.94465h31.52058"
		style="fill:#fff;stroke:none;stroke-width:.525142px;stroke-linecap:butt;stroke-linejoin:miter;stroke-opacity:1" />
	<path
		d="M186.74607 502.36688v2.55441l5.99163 4.23085-3.5151 3.75193.71898 3.43238H170.2891l3.11563-5.18871 4.6335-.55881 3.19555-5.18871z"
		style="fill:#1a2f34;fill-opacity:1;stroke:none;stroke-width:.525142px;stroke-linecap:butt;stroke-linejoin:miter;stroke-opacity:1" />
	<path
		d="m204.88073 516.33645-1.03857-3.11322-3.91452-2.15537-2.87599-4.94906-10.30558-3.75192-5.51229 3.03334-3.19555 5.18871-4.6335.55881-3.11563 5.18871z"
		style="fill:none;stroke:#1a2f34;stroke-width:1.00687;stroke-linecap:butt;stroke-linejoin:miter;stroke-miterlimit:4;stroke-dasharray:none;stroke-opacity:1" />
	<path
		d="m174.52317 484.24597-3.99443 6.06706 2.95586 4.15096-1.75751 2.87357 1.27818 8.22243-5.11283 7.26419-.0799 3.51227H138.7685l4.67808-6.94465 12.14303-8.78124 5.51229-11.17589 6.79059-3.59215z"
		style="fill:#1a2f34;fill-opacity:1;stroke:none;stroke-width:.525142px;stroke-linecap:butt;stroke-linejoin:miter;stroke-opacity:1" />
	<path
		d="m184.50919 503.40462-2.23688-3.19311-.63911-10.61707-7.11003-5.34847-6.63073 1.59655-6.79051 3.59215-5.5123 11.17589-12.14303 8.78124-4.67808 6.94465h31.52058"
		style="fill:none;stroke:#1a2f34;stroke-width:1.00687;stroke-linecap:butt;stroke-linejoin:miter;stroke-miterlimit:4;stroke-dasharray:none;stroke-opacity:1" />
	<path
		d="M606.75405 149.99108a35.525287 35.498221 0 0 0-32.32654 20.78241 20.362053 20.34654 0 0 0-.16522 0 20.362053 20.34654 0 0 0-15.38228 7.03755 16.679552 16.666845 0 0 0-6.71235-1.40947 16.679552 16.666845 0 0 0-16.68068 16.66598 16.679552 16.666845 0 0 0 .0552 1.31898 23.394702 23.376879 0 0 0-.92067-.019 23.394702 23.376879 0 0 0-23.39501 23.37722 23.394702 23.376879 0 0 0 .008.21607h167.19015a38.557936 38.52856 0 0 0 1.98106-12.12302 38.557936 38.52856 0 0 0-38.55888-38.52756 38.557936 38.52856 0 0 0-4.41853.28911 35.525287 35.498221 0 0 0-30.67398-17.60566zm-189.56977-37.35272a20.655664 20.639927 0 0 0-18.79577 12.08364 11.839221 11.830201 0 0 0-.0959-.001 11.839221 11.830201 0 0 0-8.9438 4.09189 9.698084 9.690696 0 0 0-3.90279-.81954 9.698084 9.690696 0 0 0-9.69875 9.69021 9.698084 9.690696 0 0 0 .0305.7669 13.602511 13.592147 0 0 0-.5353-.0114 13.602511 13.592147 0 0 0-13.60272 13.59233 13.602511 13.592147 0 0 0 .004.12553h97.21028a22.418954 22.401873 0 0 0 1.15187-7.04877 22.418954 22.401873 0 0 0-22.41948-22.40125 22.418954 22.401873 0 0 0-2.56911.16813 20.655664 20.639927 0 0 0-17.83494-10.23655zm9.43005 69.69777a34.397809 34.371602 0 0 0-31.30057 20.12287 19.715818 19.700797 0 0 0-.15989-.002 19.715818 19.700797 0 0 0-14.89404 6.81421 16.15019 16.137886 0 0 0-6.49935-1.36477 16.15019 16.137886 0 0 0-16.15125 16.13707 16.15019 16.137886 0 0 0 .0533 1.27713 22.652216 22.634958 0 0 0-.89147-.019 22.652216 22.634958 0 0 0-22.65254 22.63524 22.652216 22.634958 0 0 0 .008.20922H496.0101a37.334211 37.305767 0 0 0 1.9182-11.73831 37.334211 37.305767 0 0 0-37.33514-37.30471 37.334211 37.305767 0 0 0-4.27831.27997 34.397809 34.371602 0 0 0-29.70044-17.04688z"
		style="fill:none;fill-opacity:1;stroke:#000;stroke-width:1.00687;stroke-linecap:round;stroke-miterlimit:4;stroke-dasharray:none;paint-order:stroke fill markers" />
	<path
		d="M779.09008 210.52466s-18.21951-13.32672-25.25218 8.08244c0 0-14.73-17.0998-26.42739 2.16454m66.59557-30.78232s-14.0433-10.272-19.46392 6.2298c0 0-11.35362-13.18023-20.36979 1.66838m68.03947 15.57053s-11.25689-8.23388-15.60201 4.99375c0 0-9.10094-10.5651-16.32815 1.33735m65.28382-41.91879s-7.71347-5.64199-10.69084 3.42185c0 0-6.23615-7.23943-11.18836.91635"
		style="fill:none;stroke:#000;stroke-width:1.00687;stroke-linecap:butt;stroke-linejoin:miter;stroke-miterlimit:4;stroke-dasharray:none;stroke-opacity:1" />
	<path
		d="M112.21669 269.94959c-30.813323 0-47.90838 105.81069-42.450182 120.46369 5.458198 14.65278 15.765598 21.34446 42.450182 21.34446 26.68458 0 36.99202-6.69168 42.45018-21.34446 5.4582-14.653-11.63682-120.46369-42.45018-120.46369z"
		style="fill:#27fb6b;fill-opacity:1;stroke:none;stroke-width:1.00687;stroke-linecap:round;paint-order:stroke fill markers" />
	<path
		d="M819.4 300.50397c-28.55463 0-44.39652 98.05452-39.33847 111.63341 5.05809 13.5789 14.60993 19.77986 39.33847 19.77986 24.7285 0 34.28034-6.20096 39.33843-19.77986 5.05808-13.57889-10.7838-111.63341-39.33843-111.63341Z"
		style="fill:#5ae4a8;fill-opacity:1;stroke:none;stroke-width:1.00687;stroke-linecap:round;paint-order:stroke fill markers" />
	<path
		d="m819.3984 339.37736-.56659 18.98169-7.06061-7.9496 6.82455 11.33268.20062-2.20166-.96593 32.2883-6.63371-4.35639-5.24676-9.3827 2.46305 7.55448-11.19586-7.35199 20.48738 17.78647-2.22896 74.56066c2.22595-.56718 4.44205-1.13208 6.61798-1.70459l-1.10561-53.19414 3.47223-2.3334 8.18789-1.51781-6.04352.0761 17.28461-11.60954-13.11197 6.85639 1.97119-5.05214-4.4146 6.32992-7.41668 3.8786-.49182-23.62498 3.189-7.54455-3.25196 4.41116-.29123-13.90204 10.57027-14.17929-10.63716 10.90819z"
		style="fill:#1a2f34;fill-opacity:1;stroke:none;stroke-width:1.00687px;stroke-linecap:butt;stroke-linejoin:miter;stroke-opacity:1" />
	<path
		d="M875.20796 286.99861c-31.62229 0-49.16611 108.58854-43.56466 123.62629 5.60149 15.03774 16.17949 21.90479 43.56466 21.90479 27.38518 0 37.96318-6.86705 43.56467-21.90479 5.6015-15.03775-11.94232-123.62629-43.56467-123.62629z"
		style="fill:#27fb6b;fill-opacity:1;stroke:none;stroke-width:1.00687;stroke-linecap:round;paint-order:stroke fill markers" />
	<path
		d="M866.56572 503.87861c-4.65303-1.22757-18.95254-7.52934-17.13568-10.27357 1.81686-2.74423 13.25039 5.55922 13.92278 4.70864.6723-.85058-15.91441-17.47651-13.17308-19.79812 2.7413-2.3216 17.25982 15.56537 18.20665 14.76842.9469-.79771-3.85042-24.4923 2.78455-26.00516 2.17277-.49529 2.22683 24.03847 3.3201 24.50675 1.0932.4679 10.24851-12.57387 12.74464-10.27357 2.49621 2.30069-8.75641 13.97148-8.24651 14.66153.51013.68967 14.40888-2.75298 14.88661.42795.47785 3.18094-14.91509 6.35236-19.5948 7.27713z"
		style="fill:#1a2e36;fill-opacity:1;stroke:none;stroke-width:1.40801px;stroke-linecap:butt;stroke-linejoin:miter;stroke-opacity:1" />
	<path
		d="M105.22098 480.58001c-4.12135-1.08719-16.786845-6.66885-15.177614-9.09963 1.609231-2.43078 11.736334 4.92394 12.331814 4.17074.59552-.7532-14.095873-15.47939-11.667808-17.53585 2.428103-2.05608 15.287558 13.78697 16.126268 13.08094.83867-.70679-3.41045-21.69366 2.46636-23.03345 1.92445-.43936 1.97234 21.29159 2.94063 21.70623.9683.41464 9.07746-11.13709 11.28838-9.09964 2.21091 2.03782-7.75588 12.37491-7.30422 12.98584.45165.61093 12.76241-2.43801 13.18555.3804.42315 2.81727-13.21076 5.62656-17.35575 6.44557z"
		style="fill:#1a2e36;fill-opacity:1;stroke:none;stroke-width:1.24712px;stroke-linecap:butt;stroke-linejoin:miter;stroke-opacity:1" />
	<path
		d="M407.7824 406.14907c-15.20682 0-23.64345 52.21879-20.94977 59.45026 2.69367 7.23148 7.78054 10.53376 20.94977 10.53376 13.16919 0 18.25606-3.30228 20.94973-10.53376 2.69372-7.23147-5.74292-59.45026-20.94973-59.45026z"
		style="fill:#27fb6b;fill-opacity:1;stroke:none;stroke-width:1.00687;stroke-linecap:round;paint-order:stroke fill markers" />
	<path
		d="m407.78232 426.85102-.30303 10.10847-3.7595-4.23465 3.6336 6.0351.10622-1.17164-.51344 17.19463-3.53326-2.31932-2.79357-4.99737 1.31217 4.0243-5.96284-3.91588 10.91061 9.47282-1.36334 45.58873c1.28225.0761 2.55647.15596 3.84607.23204l-.73382-35.35054 1.84925-1.2424 4.35952-.80798-3.2185.0419 9.20495-6.18423-6.98189 3.65226 1.04855-2.69136-2.3509 3.37152-3.94837 2.06597-.26153-12.58109 1.69778-4.01783-1.73319 2.349-.15342-7.40494 5.62845-7.55102-5.66385 5.81105z"
		style="fill:#1a2f34;fill-opacity:1;stroke:none;stroke-width:1.00687px;stroke-linecap:butt;stroke-linejoin:miter;stroke-opacity:1" />
	<path
		d="M976.21815 406.32367s-134.48482 99.17964-473.76035 99.17964-473.760353-99.17964-473.760353-99.17964"
		style="fill:none;stroke:#000;stroke-width:1.00687px;stroke-linecap:butt;stroke-linejoin:miter;stroke-opacity:1" />
	<path
		d="m112.21669 311.8976-.61181 20.48356-7.61933-8.57875 7.36358 12.22918.21623-2.37471-1.0407 34.84172-7.15895-4.7021-5.66187-10.12383 2.65781 8.15213-12.081125-7.93393 22.106435 19.19395-3.15161 105.48248h8.44756l-1.75287-84.26553 3.7477-2.51827 8.83511-1.63764-6.52159.0837 18.65186-12.52803-14.14871 7.39942 2.12663-5.45118-4.76282 6.82901-8.00295 4.1852-.53114-25.49238 3.44078-8.14235-3.50965 4.76117-.31293-15.0029 11.40441-15.29977-11.4772 11.77114z"
		style="fill:#1a2f34;fill-opacity:1;stroke:none;stroke-width:1.00687px;stroke-linecap:butt;stroke-linejoin:miter;stroke-opacity:1" />
	<path
		d="m640.89879 516.84087-.83205-2.49431-3.13634-1.72703-2.30423-3.96533-8.25683-3.00596-4.41647 2.4304-2.56024 4.15706-3.71237.44811-2.49625 4.15706z"
		style="fill:#fff;stroke:none;stroke-width:.420742px;stroke-linecap:butt;stroke-linejoin:miter;stroke-opacity:1" />
	<path
		d="m624.57715 506.47981-1.79219-2.5586-.51208-8.50621-5.69655-4.28525-5.31254 1.2793-5.44057 2.87776-4.41643 8.95432-9.72901 7.03519-3.74809 5.56455h25.25428"
		style="fill:#fff;stroke:none;stroke-width:.420742px;stroke-linecap:butt;stroke-linejoin:miter;stroke-opacity:1" />
	<path
		d="M626.36934 505.64824v2.04658l4.80047 3.38978-2.81629 3.00595.57606 2.75032h-15.74557l2.49625-4.15744 3.71237-.44773 2.56024-4.15744z"
		style="fill:#1a2f34;fill-opacity:1;stroke:none;stroke-width:.420742px;stroke-linecap:butt;stroke-linejoin:miter;stroke-opacity:1" />
	<path
		d="m640.89879 516.84087-.83205-2.49431-3.13634-1.72703-2.30423-3.96533-8.25683-3.00596-4.41647 2.4304-2.56024 4.15706-3.71237.44811-2.49625 4.15706z"
		style="fill:none;stroke:#1a2f34;stroke-width:1.00687;stroke-linecap:butt;stroke-linejoin:miter;stroke-miterlimit:4;stroke-dasharray:none;stroke-opacity:1" />
	<path
		d="m616.57633 491.12975-3.20034 4.8608 2.36826 3.32587-1.40815 2.30259 1.02411 6.58745-4.09642 5.82018-.064 2.81423h-23.27006l3.74808-5.56455 9.72898-7.03519 4.41646-8.95394 5.44061-2.87814z"
		style="fill:#1a2f34;fill-opacity:1;stroke:none;stroke-width:.420742px;stroke-linecap:butt;stroke-linejoin:miter;stroke-opacity:1" />
	<path
		d="m624.57715 506.47981-1.79219-2.5586-.51208-8.50621-5.69655-4.28525-5.31254 1.2793-5.44057 2.87776-4.41643 8.95432-9.72901 7.03519-3.74809 5.56455h25.25428"
		style="fill:none;stroke:#1a2f34;stroke-width:1.00687;stroke-linecap:butt;stroke-linejoin:miter;stroke-miterlimit:4;stroke-dasharray:none;stroke-opacity:1" />
	<path
		d="m875.20796 330.04792-.62787 21.02134-7.81934-8.80399 7.55689 12.55024.22194-2.43705-1.06804 35.75658-7.34689-4.8258-5.81053-10.38951 2.72759 8.36614-12.39828-8.1422 22.6868 19.69773-3.23434 108.25189h8.66932l-1.79886-86.47796 3.84608-2.58446 9.06706-1.68024-6.69279.0837 19.14155-12.85727-14.52019 7.59362 2.18248-5.59422-4.88789 7.00856-8.21301 4.29476-.54511-26.16151 3.53108-8.35603-3.60174 4.88598-.32093-15.39657 11.70379-15.70147-11.77852 12.08017z"
		style="fill:#1a2f34;fill-opacity:1;stroke:none;stroke-width:1.00687px;stroke-linecap:butt;stroke-linejoin:miter;stroke-opacity:1" />
</svg>
